<?xml version="1.0" encoding="UTF-8" standalone="no"?>
<!DOCTYPE svg PUBLIC "-//W3C//DTD SVG 1.1//EN"
 "http://www.w3.org/Graphics/SVG/1.1/DTD/svg11.dtd">
<!-- Generated by graphviz version 2.38.0 (20140413.2041)
 -->
<!-- Title: %3 Pages: 1 -->
<svg width="1914pt" height="620pt"
 viewBox="0.00 0.00 1913.83 620.00" xmlns="http://www.w3.org/2000/svg" xmlns:xlink="http://www.w3.org/1999/xlink">
<g id="graph0" class="graph" transform="scale(1 1) rotate(0) translate(4 616)">
<title>%3</title>
<polygon fill="white" stroke="none" points="-4,4 -4,-616 1909.83,-616 1909.83,4 -4,4"/>
<!-- GoogleTasksTaskProviderService -->
<g id="node1" class="node"><title>GoogleTasksTaskProviderService</title>
<polygon fill="none" stroke="blue" points="912.831,-612 703.831,-612 703.831,-608 699.831,-608 699.831,-604 703.831,-604 703.831,-584 699.831,-584 699.831,-580 703.831,-580 703.831,-576 912.831,-576 912.831,-612"/>
<polyline fill="none" stroke="blue" points="703.831,-608 707.831,-608 707.831,-604 703.831,-604 "/>
<polyline fill="none" stroke="blue" points="703.831,-584 707.831,-584 707.831,-580 703.831,-580 "/>
<text text-anchor="middle" x="808.331" y="-590.3" font-family="Times New Roman,serif" font-size="14.00">GoogleTasksTaskProviderService</text>
</g>
<!-- TaskUpserted -->
<g id="node5" class="node"><title>TaskUpserted</title>
<polygon fill="none" stroke="navy" points="179.831,-540 90.8307,-540 90.8307,-504 185.831,-504 185.831,-534 179.831,-540"/>
<polyline fill="none" stroke="navy" points="179.831,-540 179.831,-534 "/>
<polyline fill="none" stroke="navy" points="185.831,-534 179.831,-534 "/>
<text text-anchor="middle" x="138.331" y="-518.3" font-family="Times New Roman,serif" font-size="14.00">TaskUpserted</text>
</g>
<!-- GoogleTasksTaskProviderService&#45;&gt;TaskUpserted -->
<g id="edge1" class="edge"><title>GoogleTasksTaskProviderService&#45;&gt;TaskUpserted</title>
<path fill="none" stroke="black" d="M703.643,-582.063C560.705,-567.129 309.341,-540.867 196.288,-529.055"/>
<polygon fill="black" stroke="black" points="196.422,-525.55 186.112,-527.992 195.695,-532.512 196.422,-525.55"/>
</g>
<!-- MicrosoftToDoTaskProviderService -->
<g id="node2" class="node"><title>MicrosoftToDoTaskProviderService</title>
<polygon fill="none" stroke="blue" points="330.831,-36 107.831,-36 107.831,-32 103.831,-32 103.831,-28 107.831,-28 107.831,-8 103.831,-8 103.831,-4 107.831,-4 107.831,-0 330.831,-0 330.831,-36"/>
<polyline fill="none" stroke="blue" points="107.831,-32 111.831,-32 111.831,-28 107.831,-28 "/>
<polyline fill="none" stroke="blue" points="107.831,-8 111.831,-8 111.831,-4 107.831,-4 "/>
<text text-anchor="middle" x="219.331" y="-14.3" font-family="Times New Roman,serif" font-size="14.00">MicrosoftToDoTaskProviderService</text>
</g>
<!-- MicrosoftToDoTaskProviderService&#45;&gt;TaskUpserted -->
<g id="edge2" class="edge"><title>MicrosoftToDoTaskProviderService&#45;&gt;TaskUpserted</title>
<path fill="none" stroke="black" d="M107.823,-28.7635C77.3576,-36.4663 46.6348,-49.6516 24.3307,-72 -4.60964,-100.998 0.330698,-120.031 0.330698,-161 0.330698,-379 0.330698,-379 0.330698,-379 0.330698,-419.969 -2.04641,-436.652 24.3307,-468 38.9488,-485.373 60.5104,-497.378 80.9589,-505.509"/>
<polygon fill="black" stroke="black" points="79.9657,-508.874 90.5584,-509.087 82.4104,-502.315 79.9657,-508.874"/>
</g>
<!-- HabiticaTaskProviderService -->
<g id="node3" class="node"><title>HabiticaTaskProviderService</title>
<polygon fill="none" stroke="blue" points="606.831,-36 427.831,-36 427.831,-32 423.831,-32 423.831,-28 427.831,-28 427.831,-8 423.831,-8 423.831,-4 427.831,-4 427.831,-0 606.831,-0 606.831,-36"/>
<polyline fill="none" stroke="blue" points="427.831,-32 431.831,-32 431.831,-28 427.831,-28 "/>
<polyline fill="none" stroke="blue" points="427.831,-8 431.831,-8 431.831,-4 427.831,-4 "/>
<text text-anchor="middle" x="517.331" y="-14.3" font-family="Times New Roman,serif" font-size="14.00">HabiticaTaskProviderService</text>
</g>
<!-- HabiticaTaskProviderService&#45;&gt;TaskUpserted -->
<g id="edge3" class="edge"><title>HabiticaTaskProviderService&#45;&gt;TaskUpserted</title>
<path fill="none" stroke="black" d="M427.569,-28.0178C295.638,-41.4572 64.1262,-65.8251 57.3307,-72 27.3963,-99.2008 38.3307,-120.553 38.3307,-161 38.3307,-379 38.3307,-379 38.3307,-379 38.3307,-427.508 77.8216,-471.126 107.17,-496.844"/>
<polygon fill="black" stroke="black" points="105.25,-499.806 115.137,-503.613 109.782,-494.471 105.25,-499.806"/>
</g>
<!-- TaskManagementService -->
<g id="node4" class="node"><title>TaskManagementService</title>
<polygon fill="none" stroke="blue" points="584.331,-324 428.331,-324 428.331,-320 424.331,-320 424.331,-316 428.331,-316 428.331,-296 424.331,-296 424.331,-292 428.331,-292 428.331,-288 584.331,-288 584.331,-324"/>
<polyline fill="none" stroke="blue" points="428.331,-320 432.331,-320 432.331,-316 428.331,-316 "/>
<polyline fill="none" stroke="blue" points="428.331,-296 432.331,-296 432.331,-292 428.331,-292 "/>
<text text-anchor="middle" x="506.331" y="-302.3" font-family="Times New Roman,serif" font-size="14.00">TaskManagementService</text>
</g>
<!-- TaskCompletionChnaged -->
<g id="node6" class="node"><title>TaskCompletionChnaged</title>
<polygon fill="none" stroke="navy" points="579.831,-252 426.831,-252 426.831,-216 585.831,-216 585.831,-246 579.831,-252"/>
<polyline fill="none" stroke="navy" points="579.831,-252 579.831,-246 "/>
<polyline fill="none" stroke="navy" points="585.831,-246 579.831,-246 "/>
<text text-anchor="middle" x="506.331" y="-230.3" font-family="Times New Roman,serif" font-size="14.00">TaskCompletionChnaged</text>
</g>
<!-- TaskManagementService&#45;&gt;TaskCompletionChnaged -->
<g id="edge4" class="edge"><title>TaskManagementService&#45;&gt;TaskCompletionChnaged</title>
<path fill="none" stroke="black" d="M506.331,-287.697C506.331,-279.983 506.331,-270.712 506.331,-262.112"/>
<polygon fill="black" stroke="black" points="509.831,-262.104 506.331,-252.104 502.831,-262.104 509.831,-262.104"/>
</g>
<!-- SubtaskCompletionChnaged -->
<g id="node7" class="node"><title>SubtaskCompletionChnaged</title>
<polygon fill="none" stroke="navy" points="774.331,-252 604.331,-252 604.331,-216 780.331,-216 780.331,-246 774.331,-252"/>
<polyline fill="none" stroke="navy" points="774.331,-252 774.331,-246 "/>
<polyline fill="none" stroke="navy" points="780.331,-246 774.331,-246 "/>
<text text-anchor="middle" x="692.331" y="-230.3" font-family="Times New Roman,serif" font-size="14.00">SubtaskCompletionChnaged</text>
</g>
<!-- TaskManagementService&#45;&gt;SubtaskCompletionChnaged -->
<g id="edge5" class="edge"><title>TaskManagementService&#45;&gt;SubtaskCompletionChnaged</title>
<path fill="none" stroke="black" d="M551.831,-287.876C577.711,-278.137 610.298,-265.872 637.572,-255.608"/>
<polygon fill="black" stroke="black" points="638.851,-258.866 646.978,-252.068 636.386,-252.315 638.851,-258.866"/>
</g>
<!-- task_upserted_exchange -->
<g id="node8" class="node"><title>task_upserted_exchange</title>
<polygon fill="none" stroke="darkorange" points="314.331,-468 164.331,-468 160.331,-464 160.331,-432 310.331,-432 314.331,-436 314.331,-468"/>
<polyline fill="none" stroke="darkorange" points="310.331,-464 160.331,-464 "/>
<polyline fill="none" stroke="darkorange" points="310.331,-464 310.331,-432 "/>
<polyline fill="none" stroke="darkorange" points="310.331,-464 314.331,-468 "/>
<text text-anchor="middle" x="237.331" y="-446.3" font-family="Times New Roman,serif" font-size="14.00">task_upserted_exchange</text>
</g>
<!-- TaskUpserted&#45;&gt;task_upserted_exchange -->
<g id="edge6" class="edge"><title>TaskUpserted&#45;&gt;task_upserted_exchange</title>
<path fill="none" stroke="black" d="M162.549,-503.876C175.253,-494.893 190.995,-483.763 204.754,-474.034"/>
<polygon fill="black" stroke="black" points="206.875,-476.821 213.019,-468.19 202.834,-471.105 206.875,-476.821"/>
</g>
<!-- task_completion_chnaged_exchange -->
<g id="node9" class="node"><title>task_completion_chnaged_exchange</title>
<polygon fill="none" stroke="darkorange" points="624.331,-180 406.331,-180 402.331,-176 402.331,-144 620.331,-144 624.331,-148 624.331,-180"/>
<polyline fill="none" stroke="darkorange" points="620.331,-176 402.331,-176 "/>
<polyline fill="none" stroke="darkorange" points="620.331,-176 620.331,-144 "/>
<polyline fill="none" stroke="darkorange" points="620.331,-176 624.331,-180 "/>
<text text-anchor="middle" x="513.331" y="-158.3" font-family="Times New Roman,serif" font-size="14.00">task_completion_chnaged_exchange</text>
</g>
<!-- TaskCompletionChnaged&#45;&gt;task_completion_chnaged_exchange -->
<g id="edge7" class="edge"><title>TaskCompletionChnaged&#45;&gt;task_completion_chnaged_exchange</title>
<path fill="none" stroke="black" d="M508.061,-215.697C508.832,-207.983 509.759,-198.712 510.619,-190.112"/>
<polygon fill="black" stroke="black" points="514.108,-190.403 511.62,-180.104 507.143,-189.706 514.108,-190.403"/>
</g>
<!-- subtask_completion_chnaged_exchange -->
<g id="node10" class="node"><title>subtask_completion_chnaged_exchange</title>
<polygon fill="none" stroke="darkorange" points="1367.33,-180 1129.33,-180 1125.33,-176 1125.33,-144 1363.33,-144 1367.33,-148 1367.33,-180"/>
<polyline fill="none" stroke="darkorange" points="1363.33,-176 1125.33,-176 "/>
<polyline fill="none" stroke="darkorange" points="1363.33,-176 1363.33,-144 "/>
<polyline fill="none" stroke="darkorange" points="1363.33,-176 1367.33,-180 "/>
<text text-anchor="middle" x="1246.33" y="-158.3" font-family="Times New Roman,serif" font-size="14.00">subtask_completion_chnaged_exchange</text>
</g>
<!-- SubtaskCompletionChnaged&#45;&gt;subtask_completion_chnaged_exchange -->
<g id="edge8" class="edge"><title>SubtaskCompletionChnaged&#45;&gt;subtask_completion_chnaged_exchange</title>
<path fill="none" stroke="black" d="M780.42,-221.87C870.534,-210.483 1011.6,-192.66 1114.91,-179.605"/>
<polygon fill="black" stroke="black" points="1115.62,-183.044 1125.1,-178.318 1114.74,-176.099 1115.62,-183.044"/>
</g>
<!-- task_upserted_task_management_queue -->
<g id="node11" class="node"><title>task_upserted_task_management_queue</title>
<polygon fill="none" stroke="crimson" points="537.331,-396 299.331,-396 295.331,-392 295.331,-360 533.331,-360 537.331,-364 537.331,-396"/>
<polyline fill="none" stroke="crimson" points="533.331,-392 295.331,-392 "/>
<polyline fill="none" stroke="crimson" points="533.331,-392 533.331,-360 "/>
<polyline fill="none" stroke="crimson" points="533.331,-392 537.331,-396 "/>
<text text-anchor="middle" x="416.331" y="-374.3" font-family="Times New Roman,serif" font-size="14.00">task_upserted_task_management_queue</text>
</g>
<!-- task_upserted_exchange&#45;&gt;task_upserted_task_management_queue -->
<g id="edge9" class="edge"><title>task_upserted_exchange&#45;&gt;task_upserted_task_management_queue</title>
<path fill="none" stroke="black" d="M281.119,-431.876C305.916,-422.179 337.112,-409.98 363.289,-399.743"/>
<polygon fill="black" stroke="black" points="364.646,-402.97 372.685,-396.068 362.097,-396.451 364.646,-402.97"/>
</g>
<!-- task_completion_chnaged_habitica_queue -->
<g id="node12" class="node"><title>task_completion_chnaged_habitica_queue</title>
<polygon fill="none" stroke="crimson" points="644.331,-108 394.331,-108 390.331,-104 390.331,-72 640.331,-72 644.331,-76 644.331,-108"/>
<polyline fill="none" stroke="crimson" points="640.331,-104 390.331,-104 "/>
<polyline fill="none" stroke="crimson" points="640.331,-104 640.331,-72 "/>
<polyline fill="none" stroke="crimson" points="640.331,-104 644.331,-108 "/>
<text text-anchor="middle" x="517.331" y="-86.3" font-family="Times New Roman,serif" font-size="14.00">task_completion_chnaged_habitica_queue</text>
</g>
<!-- task_completion_chnaged_exchange&#45;&gt;task_completion_chnaged_habitica_queue -->
<g id="edge10" class="edge"><title>task_completion_chnaged_exchange&#45;&gt;task_completion_chnaged_habitica_queue</title>
<path fill="none" stroke="black" d="M514.319,-143.697C514.76,-135.983 515.29,-126.712 515.781,-118.112"/>
<polygon fill="black" stroke="black" points="519.277,-118.288 516.353,-108.104 512.288,-117.888 519.277,-118.288"/>
</g>
<!-- task_completion_chnaged_microsoft_to_do_queue -->
<g id="node13" class="node"><title>task_completion_chnaged_microsoft_to_do_queue</title>
<polygon fill="none" stroke="crimson" points="372.331,-108 70.3307,-108 66.3307,-104 66.3307,-72 368.331,-72 372.331,-76 372.331,-108"/>
<polyline fill="none" stroke="crimson" points="368.331,-104 66.3307,-104 "/>
<polyline fill="none" stroke="crimson" points="368.331,-104 368.331,-72 "/>
<polyline fill="none" stroke="crimson" points="368.331,-104 372.331,-108 "/>
<text text-anchor="middle" x="219.331" y="-86.3" font-family="Times New Roman,serif" font-size="14.00">task_completion_chnaged_microsoft_to_do_queue</text>
</g>
<!-- task_completion_chnaged_exchange&#45;&gt;task_completion_chnaged_microsoft_to_do_queue -->
<g id="edge11" class="edge"><title>task_completion_chnaged_exchange&#45;&gt;task_completion_chnaged_microsoft_to_do_queue</title>
<path fill="none" stroke="black" d="M441.786,-143.966C399.2,-133.826 345.022,-120.927 300.795,-110.396"/>
<polygon fill="black" stroke="black" points="301.48,-106.962 290.941,-108.05 299.858,-113.771 301.48,-106.962"/>
</g>
<!-- task_completion_chnaged_google_tasks_queue -->
<g id="node14" class="node"><title>task_completion_chnaged_google_tasks_queue</title>
<polygon fill="none" stroke="crimson" points="946.331,-108 666.331,-108 662.331,-104 662.331,-72 942.331,-72 946.331,-76 946.331,-108"/>
<polyline fill="none" stroke="crimson" points="942.331,-104 662.331,-104 "/>
<polyline fill="none" stroke="crimson" points="942.331,-104 942.331,-72 "/>
<polyline fill="none" stroke="crimson" points="942.331,-104 946.331,-108 "/>
<text text-anchor="middle" x="804.331" y="-86.3" font-family="Times New Roman,serif" font-size="14.00">task_completion_chnaged_google_tasks_queue</text>
</g>
<!-- task_completion_chnaged_exchange&#45;&gt;task_completion_chnaged_google_tasks_queue -->
<g id="edge12" class="edge"><title>task_completion_chnaged_exchange&#45;&gt;task_completion_chnaged_google_tasks_queue</title>
<path fill="none" stroke="black" d="M584.145,-143.966C626.297,-133.826 679.922,-120.927 723.697,-110.396"/>
<polygon fill="black" stroke="black" points="724.547,-113.792 733.451,-108.05 722.91,-106.986 724.547,-113.792"/>
</g>
<!-- subtask_completion_chnaged_habitica_queue -->
<g id="node15" class="node"><title>subtask_completion_chnaged_habitica_queue</title>
<polygon fill="none" stroke="crimson" points="1582.33,-108 1312.33,-108 1308.33,-104 1308.33,-72 1578.33,-72 1582.33,-76 1582.33,-108"/>
<polyline fill="none" stroke="crimson" points="1578.33,-104 1308.33,-104 "/>
<polyline fill="none" stroke="crimson" points="1578.33,-104 1578.33,-72 "/>
<polyline fill="none" stroke="crimson" points="1578.33,-104 1582.33,-108 "/>
<text text-anchor="middle" x="1445.33" y="-86.3" font-family="Times New Roman,serif" font-size="14.00">subtask_completion_chnaged_habitica_queue</text>
</g>
<!-- subtask_completion_chnaged_exchange&#45;&gt;subtask_completion_chnaged_habitica_queue -->
<g id="edge13" class="edge"><title>subtask_completion_chnaged_exchange&#45;&gt;subtask_completion_chnaged_habitica_queue</title>
<path fill="none" stroke="black" d="M1294.76,-143.966C1322.56,-134.185 1357.67,-121.836 1386.99,-111.524"/>
<polygon fill="black" stroke="black" points="1388.42,-114.731 1396.69,-108.111 1386.09,-108.127 1388.42,-114.731"/>
</g>
<!-- subtask_completion_chnaged_microsoft_to_do_queue -->
<g id="node16" class="node"><title>subtask_completion_chnaged_microsoft_to_do_queue</title>
<polygon fill="none" stroke="crimson" points="1290.33,-108 968.331,-108 964.331,-104 964.331,-72 1286.33,-72 1290.33,-76 1290.33,-108"/>
<polyline fill="none" stroke="crimson" points="1286.33,-104 964.331,-104 "/>
<polyline fill="none" stroke="crimson" points="1286.33,-104 1286.33,-72 "/>
<polyline fill="none" stroke="crimson" points="1286.33,-104 1290.33,-108 "/>
<text text-anchor="middle" x="1127.33" y="-86.3" font-family="Times New Roman,serif" font-size="14.00">subtask_completion_chnaged_microsoft_to_do_queue</text>
</g>
<!-- subtask_completion_chnaged_exchange&#45;&gt;subtask_completion_chnaged_microsoft_to_do_queue -->
<g id="edge14" class="edge"><title>subtask_completion_chnaged_exchange&#45;&gt;subtask_completion_chnaged_microsoft_to_do_queue</title>
<path fill="none" stroke="black" d="M1217.22,-143.876C1201.66,-134.724 1182.31,-123.342 1165.56,-113.485"/>
<polygon fill="black" stroke="black" points="1166.95,-110.243 1156.55,-108.19 1163.4,-116.277 1166.95,-110.243"/>
</g>
<!-- subtask_completion_chnaged_google_tasks_queue -->
<g id="node17" class="node"><title>subtask_completion_chnaged_google_tasks_queue</title>
<polygon fill="none" stroke="crimson" points="1905.83,-108 1604.83,-108 1600.83,-104 1600.83,-72 1901.83,-72 1905.83,-76 1905.83,-108"/>
<polyline fill="none" stroke="crimson" points="1901.83,-104 1600.83,-104 "/>
<polyline fill="none" stroke="crimson" points="1901.83,-104 1901.83,-72 "/>
<polyline fill="none" stroke="crimson" points="1901.83,-104 1905.83,-108 "/>
<text text-anchor="middle" x="1753.33" y="-86.3" font-family="Times New Roman,serif" font-size="14.00">subtask_completion_chnaged_google_tasks_queue</text>
</g>
<!-- subtask_completion_chnaged_exchange&#45;&gt;subtask_completion_chnaged_google_tasks_queue -->
<g id="edge15" class="edge"><title>subtask_completion_chnaged_exchange&#45;&gt;subtask_completion_chnaged_google_tasks_queue</title>
<path fill="none" stroke="black" d="M1367.45,-144.278C1443.57,-133.767 1541.84,-120.2 1620.16,-109.387"/>
<polygon fill="black" stroke="black" points="1620.66,-112.85 1630.09,-108.015 1619.71,-105.916 1620.66,-112.85"/>
</g>
<!-- task_upserted_task_management_queue&#45;&gt;TaskManagementService -->
<g id="edge16" class="edge"><title>task_upserted_task_management_queue&#45;&gt;TaskManagementService</title>
<path fill="none" stroke="black" d="M438.578,-359.697C449.913,-350.881 463.861,-340.032 476.15,-330.474"/>
<polygon fill="black" stroke="black" points="478.595,-333.007 484.339,-324.104 474.297,-327.481 478.595,-333.007"/>
</g>
<!-- task_completion_chnaged_habitica_queue&#45;&gt;HabiticaTaskProviderService -->
<g id="edge17" class="edge"><title>task_completion_chnaged_habitica_queue&#45;&gt;HabiticaTaskProviderService</title>
<path fill="none" stroke="black" d="M517.331,-71.6966C517.331,-63.9827 517.331,-54.7125 517.331,-46.1124"/>
<polygon fill="black" stroke="black" points="520.831,-46.1043 517.331,-36.1043 513.831,-46.1044 520.831,-46.1043"/>
</g>
<!-- task_completion_chnaged_microsoft_to_do_queue&#45;&gt;MicrosoftToDoTaskProviderService -->
<g id="edge18" class="edge"><title>task_completion_chnaged_microsoft_to_do_queue&#45;&gt;MicrosoftToDoTaskProviderService</title>
<path fill="none" stroke="black" d="M219.331,-71.6966C219.331,-63.9827 219.331,-54.7125 219.331,-46.1124"/>
<polygon fill="black" stroke="black" points="222.831,-46.1043 219.331,-36.1043 215.831,-46.1044 222.831,-46.1043"/>
</g>
<!-- task_completion_chnaged_google_tasks_queue&#45;&gt;GoogleTasksTaskProviderService -->
<g id="edge19" class="edge"><title>task_completion_chnaged_google_tasks_queue&#45;&gt;GoogleTasksTaskProviderService</title>
<path fill="none" stroke="black" d="M805.121,-108.045C806.287,-134.698 808.331,-187.868 808.331,-233 808.331,-451 808.331,-451 808.331,-451 808.331,-491.004 808.331,-537.347 808.331,-565.92"/>
<polygon fill="black" stroke="black" points="804.831,-565.951 808.331,-575.951 811.831,-565.951 804.831,-565.951"/>
</g>
<!-- subtask_completion_chnaged_habitica_queue&#45;&gt;HabiticaTaskProviderService -->
<g id="edge20" class="edge"><title>subtask_completion_chnaged_habitica_queue&#45;&gt;HabiticaTaskProviderService</title>
<path fill="none" stroke="black" d="M1308.18,-72.836C1305.21,-72.5481 1302.25,-72.269 1299.33,-72 1054.45,-49.4578 765.595,-32.3297 616.893,-24.2057"/>
<polygon fill="black" stroke="black" points="617.043,-20.7087 606.867,-23.66 616.662,-27.6984 617.043,-20.7087"/>
</g>
<!-- subtask_completion_chnaged_microsoft_to_do_queue&#45;&gt;MicrosoftToDoTaskProviderService -->
<g id="edge21" class="edge"><title>subtask_completion_chnaged_microsoft_to_do_queue&#45;&gt;MicrosoftToDoTaskProviderService</title>
<path fill="none" stroke="black" d="M963.926,-72.7237C961.038,-72.477 958.172,-72.2356 955.331,-72 716.946,-52.2338 656.841,-54.1809 418.331,-36 393.302,-34.0922 366.516,-31.904 340.968,-29.7465"/>
<polygon fill="black" stroke="black" points="341.126,-26.2474 330.866,-28.8897 340.535,-33.2224 341.126,-26.2474"/>
</g>
<!-- subtask_completion_chnaged_google_tasks_queue&#45;&gt;GoogleTasksTaskProviderService -->
<g id="edge22" class="edge"><title>subtask_completion_chnaged_google_tasks_queue&#45;&gt;GoogleTasksTaskProviderService</title>
<path fill="none" stroke="black" d="M1724.28,-108.088C1688.77,-131.421 1633.33,-176.838 1633.33,-233 1633.33,-451 1633.33,-451 1633.33,-451 1633.33,-522.165 1150.4,-567.557 923.513,-584.955"/>
<polygon fill="black" stroke="black" points="922.942,-581.489 913.236,-585.738 923.473,-588.468 922.942,-581.489"/>
</g>
</g>
</svg>
